<svg xmlns="http://www.w3.org/2000/svg" version="1.1" viewBox="0 0 64 64">
  <rect fill="#e7e3d9" width="64" height="64"/>
  <g id="#vFSAXQ">
    <g fill="#2b303b">
      <path d="M47.47,27.06c1.43.35,2.53,1.57,2.51,3.07-.06,1.11-.42,2.18-.57,3.29-.39,2.32-.48,4.71-.24,7.08.21,2.47.09,4.87-.09,7.33-.1,1.28-.33,2.6-.29,3.91-.01,1.46.68,2.94.6,4.38-.1,1.48-1.43,2.75-2.92,2.7-.91.02-1.9-.28-2.88-.35-2.12-.23-4.38-.23-6.49-.33-1.42-.06-2.88-.2-4.31-.26-3.13-.05-6.28.2-9.38.57-1.35.17-2.55.5-3.88.48-1.59,0-3.34-.93-3.73-2.55-.3-1.29.02-2.59.03-3.94.03-1.67-.34-3.33-.38-5-.12-3.68.17-7.41.15-11.09-.06-2.16-.51-5.65,2.66-5.42,2.88.36,2.61,3.74,2.51,5.92.02,3.98-.4,8.02-.02,11.99.22,1.37.08,3.12,1.1,4.15.76.67,1.75-.02,2.04-.86.35-.93.19-1.89.18-2.91-.03-2.31-.14-4.64-.36-6.95-.11-1.52-.23-3-.56-4.46-.26-1.43-1.26-3.22.08-4.36,1.59-1.16,3.66-.44,5.48-.4,2.11.15,4.23.07,6.32-.05,1.05-.07,2.08-.32,3.13-.27,1.83.04,3.79,1.09,3.54,3.17-.14,1.49-1.25,2.78-1.71,4.23-.81,2.31-.71,4.81-.72,7.23.01.95,0,1.89.01,2.8.02.65.05,1.34.35,1.92.83,1.58,3.01,1.61,3.67-.18.53-1.46.45-3.14.59-4.67.15-2.08.24-4.2.06-6.27-.24-2.94-.41-5.93-.54-8.86-.06-1.17-.36-2.35-.02-3.5.47-1.67,2.61-2.1,4.08-1.56h0ZM33.19,37.41c-1-.37-2.18-.38-3.25-.32-1.2.05-2.07.22-2.35,1.48-.17.75-.07,1.55-.07,2.32,0,1.66.11,3.36.26,4.99.17,1.64.27,3.3.25,4.96,0,1.14.24,2.19,1.54,2.34.87.09,1.92.1,2.81-.07,1.79-.32,1.51-1.64,1.6-3.09.07-1.55.12-3.12.3-4.67.13-1.63.39-3.21.6-4.83.22-1.71.1-2.6-1.7-3.12h0Z"/>
      <path d="M31.72,5.51c1.15.11,2.23.57,3.15,1.26.75.48,1.34,1.11,2.12,1.68.94.67,1.96,1.25,2.94,1.87.87.55,1.72,1.21,2.52,1.88,1,.86,1.9,1.82,2.87,2.72,1.16,1.1,2.42,2.11,3.55,3.24.94.95,1.91,1.86,2.95,2.68.78.58,1.49,1.24,2.2,1.9.89.8,1.81,1.65,2.78,2.31.67.49,1.36.94,1.98,1.45.55.49,1.11,1.1,1.51,1.75.45.8.53,1.79-.03,2.56-.77,1.08-2.3,1.47-3.58,1.2-1.21-.26-2.04-1.21-2.8-2.11-.48-.57-1.02-1.08-1.57-1.6-1.23-1.19-2.52-2.47-3.84-3.58-1.38-1.11-2.53-2.46-3.77-3.71-.92-.91-1.96-1.75-2.95-2.61-.97-.85-1.91-1.7-2.89-2.52-1.28-1.03-3.53-3.15-5.21-3.03-.78.05-1.39.6-2.02,1.06-.97.68-1.99,1.18-2.97,1.91-.54.4-1.02.89-1.49,1.38-2.14,2.27-4.66,4.08-6.93,6.2-1.21,1.11-2.08,2.48-3.24,3.63-.68.68-1.45,1.27-2.17,1.91-.7.63-1.38,1.27-2.09,1.89-.82.73-1.72,1.49-2.5,2.29-.75.76-1.52,1.56-2.51,1.96-.94.38-2.07.35-2.94-.2-1.05-.65-1.84-2.07-1.27-3.28.22-.49.57-.86.98-1.23.56-.5,1.15-.96,1.74-1.43,2.23-1.76,4.29-3.68,6.24-5.75.79-.84,1.63-1.63,2.47-2.42,1.25-1.2,2.54-2.36,3.87-3.46,1.49-1.25,2.82-2.65,4.19-4.02,1.22-1.21,2.33-2.56,3.16-4.03.5-.86.95-1.66,1.7-2.32,1.02-.89,2.45-1.51,3.83-1.42h.01Z"/>
      <path d="M31.72,18.64c.4.09.78.23,1.15.39.6.27,1.23.55,1.81.87,1.2.59,2.48,1.51,2.58,2.97.03.74-.31,1.46-.65,2.09-.6,1.12-1.66,1.75-2.86,2.1-1.51.47-3.14.79-4.72.52-.82-.14-1.54-.47-2.15-.99-.67-.54-1.24-1.22-1.57-2-.39-.91-.3-2.14.21-2.99.39-.64.98-1.17,1.57-1.62.86-.61,1.82-1.22,2.87-1.39.57-.09,1.16-.08,1.73.04h.01ZM30.6,22.25c-.44,0-.83.11-1.13.37-.53.43-.68,1.29-.12,1.76.76.6,1.94.49,2.77.07.55-.29,1.41-.93.9-1.49-.29-.29-.67-.39-1.1-.5-.43-.1-.87-.2-1.3-.21h-.01Z"/>
    </g>
  </g>
</svg>