<?xml version="1.0" encoding="UTF-8"?>
<svg id="Layer_1" xmlns="http://www.w3.org/2000/svg" version="1.1" viewBox="0 0 1280 720">
  <!-- Generator: Adobe Illustrator 29.7.1, SVG Export Plug-In . SVG Version: 2.1.1 Build 8)  -->
  <defs>
    <style>
      .st0, .st1 {
        fill: #2b303c;
      }

      .st1 {
        font-family: DanaLibraryHand-Bold, 'Dana Library Hand';
        font-size: 120px;
        font-weight: 700;
      }

      .st2 {
        fill: #e7e3d9;
      }
    </style>
  </defs>
  <rect class="st2" y="0" width="1280" height="720"/>
  <g id="_x23_vFSAXQ">
    <g>
      <path class="st0" d="M690.06,272.22c4.63,1.13,8.18,5.08,8.12,9.93-.19,3.59-1.36,7.05-1.84,10.64-1.26,7.5-1.55,15.23-.78,22.9.68,7.99.29,15.75-.29,23.71-.32,4.14-1.07,8.41-.94,12.65-.03,4.72,2.2,9.51,1.94,14.17-.32,4.79-4.63,8.89-9.44,8.73-2.94.06-6.15-.91-9.32-1.13-6.86-.74-14.17-.74-20.99-1.07-4.59-.19-9.32-.65-13.94-.84-10.12-.16-20.31.65-30.34,1.84-4.37.55-8.25,1.62-12.55,1.55-5.14,0-10.8-3.01-12.06-8.25-.97-4.17.06-8.38.1-12.74.1-5.4-1.1-10.77-1.23-16.17-.39-11.9.55-23.97.49-35.87-.19-6.99-1.65-18.27,8.6-17.53,9.32,1.16,8.44,12.1,8.12,19.15.06,12.87-1.29,25.94-.06,38.78.71,4.43.26,10.09,3.56,13.42,2.46,2.17,5.66-.06,6.6-2.78,1.13-3.01.61-6.11.58-9.41-.1-7.47-.45-15.01-1.16-22.48-.36-4.92-.74-9.7-1.81-14.43-.84-4.63-4.08-10.41.26-14.1,5.14-3.75,11.84-1.42,17.72-1.29,6.82.49,13.68.23,20.44-.16,3.4-.23,6.73-1.03,10.12-.87,5.92.13,12.26,3.53,11.45,10.25-.45,4.82-4.04,8.99-5.53,13.68-2.62,7.47-2.3,15.56-2.33,23.38.03,3.07,0,6.11.03,9.06.06,2.1.16,4.33,1.13,6.21,2.68,5.11,9.74,5.21,11.87-.58,1.71-4.72,1.46-10.16,1.91-15.1.49-6.73.78-13.58.19-20.28-.78-9.51-1.33-19.18-1.75-28.66-.19-3.78-1.16-7.6-.06-11.32,1.52-5.4,8.44-6.79,13.2-5.05h0v.06ZM643.88,305.69c-3.23-1.2-7.05-1.23-10.51-1.03-3.88.16-6.7.71-7.6,4.79-.55,2.43-.23,5.01-.23,7.5,0,5.37.36,10.87.84,16.14.55,5.3.87,10.67.81,16.04,0,3.69.78,7.08,4.98,7.57,2.81.29,6.21.32,9.09-.23,5.79-1.03,4.88-5.3,5.17-9.99.23-5.01.39-10.09.97-15.1.42-5.27,1.26-10.38,1.94-15.62.71-5.53.32-8.41-5.5-10.09h0l.03.03Z"/>
      <path class="st0" d="M639.12,202.52c3.72.36,7.21,1.84,10.19,4.08,2.43,1.55,4.33,3.59,6.86,5.43,3.04,2.17,6.34,4.04,9.51,6.05,2.81,1.78,5.56,3.91,8.15,6.08,3.23,2.78,6.15,5.89,9.28,8.8,3.75,3.56,7.83,6.82,11.48,10.48,3.04,3.07,6.18,6.02,9.54,8.67,2.52,1.88,4.82,4.01,7.12,6.15,2.88,2.59,5.85,5.34,8.99,7.47,2.17,1.58,4.4,3.04,6.4,4.69,1.78,1.58,3.59,3.56,4.88,5.66,1.46,2.59,1.71,5.79-.1,8.28-2.49,3.49-7.44,4.75-11.58,3.88-3.91-.84-6.6-3.91-9.06-6.82-1.55-1.84-3.3-3.49-5.08-5.18-3.98-3.85-8.15-7.99-12.42-11.58-4.46-3.59-8.18-7.96-12.19-12-2.98-2.94-6.34-5.66-9.54-8.44-3.14-2.75-6.18-5.5-9.35-8.15-4.14-3.33-11.42-10.19-16.85-9.8-2.52.16-4.5,1.94-6.53,3.43-3.14,2.2-6.44,3.82-9.61,6.18-1.75,1.29-3.3,2.88-4.82,4.46-6.92,7.34-15.07,13.2-22.41,20.05-3.91,3.59-6.73,8.02-10.48,11.74-2.2,2.2-4.69,4.11-7.02,6.18-2.26,2.04-4.46,4.11-6.76,6.11-2.65,2.36-5.56,4.82-8.09,7.41-2.43,2.46-4.92,5.05-8.12,6.34-3.04,1.23-6.7,1.13-9.51-.65-3.4-2.1-5.95-6.7-4.11-10.61.71-1.58,1.84-2.78,3.17-3.98,1.81-1.62,3.72-3.1,5.63-4.63,7.21-5.69,13.88-11.9,20.18-18.6,2.56-2.72,5.27-5.27,7.99-7.83,4.04-3.88,8.22-7.63,12.52-11.19,4.82-4.04,9.12-8.57,13.55-13,3.95-3.91,7.54-8.28,10.22-13.03,1.62-2.78,3.07-5.37,5.5-7.5,3.3-2.88,7.92-4.88,12.39-4.59h.03l.03-.03Z"/>
      <path class="st0" d="M639.12,244.98c1.29.29,2.52.74,3.72,1.26,1.94.87,3.98,1.78,5.85,2.81,3.88,1.91,8.02,4.88,8.34,9.61.1,2.39-1,4.72-2.1,6.76-1.94,3.62-5.37,5.66-9.25,6.79-4.88,1.52-10.16,2.56-15.27,1.68-2.65-.45-4.98-1.52-6.95-3.2-2.17-1.75-4.01-3.95-5.08-6.47-1.26-2.94-.97-6.92.68-9.67,1.26-2.07,3.17-3.78,5.08-5.24,2.78-1.97,5.89-3.95,9.28-4.5,1.84-.29,3.75-.26,5.6.13h.03l.06.03ZM635.5,256.66c-1.42,0-2.68.36-3.65,1.2-1.71,1.39-2.2,4.17-.39,5.69,2.46,1.94,6.27,1.58,8.96.23,1.78-.94,4.56-3.01,2.91-4.82-.94-.94-2.17-1.26-3.56-1.62-1.39-.32-2.81-.65-4.2-.68h-.06Z"/>
    </g>
  </g>
  <text class="st1" transform="translate(122.45 501.22)"><tspan x="0" y="0">Home Group 2025</tspan></text>
</svg>