<svg xmlns="http://www.w3.org/2000/svg" version="1.1" viewBox="0 0 64 64">
  <g fill="currentColor">
  <path d="M54.72,16.15c-8.68-5.87-5.41-20.52-18.87-14.88-8.8-.35-18.04-.22-26.82-1.01-2.12-.34-4.74.27-4.3,2.91,4.51,18.12.26,38.29.86,56.78-.08,1.81,1.43,4.12,3.43,4.05,12.18-2.8,25.03-.33,37.34-2.11,2.68.18,5.17,1.42,7.87,1.39,2.29.05,3.84-2.11,3.41-4.28-.95-4.72-.51-9.63-.38-14.71-.28-5.88.44-11.61.87-17.44,1.41-5.34,2.68-7.97-3.43-10.7ZM39.49,11.44c.07-.69-.19-2.9.62-2.94,3.06,1.8,5.14,5.46,7.67,7.9.51.96-1.35.88-1.95.93-5.17.2-6.62-1.12-6.33-5.89ZM50.13,56.93c-9.9,1.16-19.89,1.78-29.9,1.36-3.58.12-8.49,2.04-9.47-2.54-1.48-15.66,1.77-31.55.3-46.95-.02-4.02,5.15-2.77,7.78-2.85,5.15-.15,10.75-1.33,15.74.47,4.71,4.13-6.02,13.78,3.5,15.38,2.89-.21,5.88-1.09,8.87-.91,10.3-1.67,3.73,17.8,5.32,24.34-.01,3.43,2.41,10.52-2.14,11.7Z"/>
  <path d="M25.8,31.53c.58,3.04,2.38,7.82.53,11.33.59,6.58,8.34.28,10.22-2.58,3.55-6.8-5.94-13.05-10.75-8.74ZM30.09,41.52c.06-2.47.38-4.55-.24-7.16-.12-1.03,3.13-.16,3.53.34,2.42,1.85-.99,6.4-3.29,6.81Z"/>
  <path d="M14.45,31.43c.04,3.14,3.56,1.12,1.97,5.12,1.97,2.96-1.57,6.8.07,9.27,1.04.14,1.99,1.17,2.78-.23.8-1.5.97-3.47.79-5.04-.48-4.58,8.78-4.54,4.04-10.26-2.55-3.25-7.21-1.2-9.65,1.14ZM20.63,34.05c-1.08.25-.18-1.73-.32-2.07,1.88-.32,1.7,1.21.32,2.07Z"/>
  <path d="M43.44,37.08c-1,.08-1.92.11-1.65-1.15-2.2-5.96,8.04-.54,6.97-5.16-13.39-5.33-9.35,5.29-9.7,13.63,2.57,4.36,3.72-1.57,3.06-3.9,2.38-.38,4.96-.69,6.79-1.68.75-3.46-3.61-2.53-5.46-1.75Z"/>
</g>
</svg>