<svg xmlns="http://www.w3.org/2000/svg" version="1.1" viewBox="0 0 64 64">
  <g fill="currentColor">
  <path d="M54.72,16.15c-8.68-5.87-5.41-20.52-18.87-14.88-8.8-.35-18.04-.22-26.82-1.01-2.12-.34-4.74.27-4.3,2.91,4.51,18.12.26,38.29.86,56.78-.08,1.81,1.43,4.12,3.43,4.05,12.18-2.8,25.03-.33,37.34-2.11,2.68.18,5.17,1.42,7.87,1.39,2.29.05,3.84-2.11,3.41-4.28-.95-4.72-.51-9.63-.38-14.71-.28-5.88.44-11.61.87-17.44,1.41-5.34,2.68-7.97-3.43-10.7ZM39.49,11.44c.07-.69-.19-2.9.62-2.94,3.06,1.8,5.14,5.46,7.67,7.9.51.96-1.35.88-1.95.93-5.17.2-6.62-1.12-6.33-5.89ZM50.13,56.93c-9.9,1.16-19.89,1.78-29.9,1.36-3.58.12-8.49,2.04-9.47-2.54-1.48-15.66,1.77-31.55.3-46.95-.02-4.02,5.15-2.77,7.78-2.85,5.15-.15,10.75-1.33,15.74.47,4.71,4.13-6.02,13.78,3.5,15.38,2.89-.21,5.88-1.09,8.87-.91,10.3-1.67,3.73,17.8,5.32,24.34-.01,3.43,2.41,10.52-2.14,11.7Z"/>
  <path d="M44.47,24.79c-5.38-1.03-.91,6.02-2.26,8.78-.31,2.53-3.45,9.37-6.45,6.69-.81-3.95,2.43-11.06-1.31-13.64-7.16-2.07.2,17.22-10.82,14.49-2.73-3.43.55-8.99-.47-12.96-.08-1.69-1.94-3.7-3.6-2.51-1.12,1.28-.54,3.59-.86,5.28-.26,5.15-2.1,13.32,4.51,14.88,3.67,1.07,7.13-2.54,10.54.01,9.81,4.06,18.29-14.84,10.72-21.02Z"/>
</g>
</svg>